<svg data-name="Layer 1" xmlns="http://www.w3.org/2000/svg" viewBox="0 0 24 24" style="fill: #ffffff">
    <path
        d="M12.9 8.1h-1.8v2.85H8.4v1.775h2.7v2.825h1.8v-2.825h2.7v-1.75h-2.7zm8.413-3.562a5.181 5.181 0 00-1.85-1.85A4.9 4.9 0 0016.925 2h-9.85a4.899 4.899 0 00-2.538.687 5.177 5.177 0 00-1.85 1.85A4.89 4.89 0 002 7.075v9.85a4.89 4.89 0 00.688 2.538 5.177 5.177 0 001.85 1.85A4.898 4.898 0 007.074 22h9.85a4.9 4.9 0 002.538-.688 5.181 5.181 0 001.85-1.85A4.894 4.894 0 0022 16.925v-9.85a4.894 4.894 0 00-.688-2.538zm-.338 12.387a3.889 3.889 0 01-.55 2.025 4.17 4.17 0 01-1.475 1.475 3.893 3.893 0 01-2.025.55h-9.85a3.893 3.893 0 01-2.026-.55 4.162 4.162 0 01-1.474-1.475 3.889 3.889 0 01-.55-2.025v-9.85a3.892 3.892 0 01.55-2.025A4.164 4.164 0 015.05 3.575a3.894 3.894 0 012.025-.55h9.85a3.894 3.894 0 012.026.55 4.14 4.14 0 011.474 1.487 3.957 3.957 0 01.55 2.038z"></path>
</svg>