<svg data-name="Layer 1" xmlns="http://www.w3.org/2000/svg" viewBox="0 0 24 24" style="fill:#ffffff">
    <path
        d="M21.324 4.613a5.329 5.329 0 00-1.8-1.9A4.54 4.54 0 0017.047 2H6.953a4.538 4.538 0 00-2.477.712 5.32 5.32 0 00-1.8 1.9A5.186 5.186 0 002 7.225V22l4.455-4.65h10.592a4.598 4.598 0 002.489-.712 5.163 5.163 0 001.8-1.913A5.327 5.327 0 0022 12.1V7.225a5.186 5.186 0 00-.676-2.612zM8.114 10.85a1.158 1.158 0 01-.842.35 1.084 1.084 0 01-.829-.375 1.27 1.27 0 01-.344-.887 1.229 1.229 0 01.344-.876 1.116 1.116 0 01.842-.362 1.098 1.098 0 01.84.375 1.288 1.288 0 01.344.9 1.18 1.18 0 01-.355.875zm4.763 0a1.159 1.159 0 01-.842.35 1.083 1.083 0 01-.829-.375 1.266 1.266 0 01-.343-.887 1.224 1.224 0 01.343-.876 1.113 1.113 0 01.841-.362 1.1 1.1 0 01.842.375 1.288 1.288 0 01.344.9 1.18 1.18 0 01-.356.875zm4.762 0a1.157 1.157 0 01-.84.35 1.084 1.084 0 01-.83-.375 1.27 1.27 0 01-.343-.887 1.227 1.227 0 01.343-.876 1.115 1.115 0 01.841-.362 1.1 1.1 0 01.842.375 1.287 1.287 0 01.342.9 1.177 1.177 0 01-.355.875z"></path>
</svg>