<svg viewBox="0 0 24 24" fill="none" xmlns="http://www.w3.org/2000/svg">
    <g clip-path="url(#clip0)">
        <path d="M7 1H3C1.89543 1 1 1.89543 1 3V7" stroke="white" stroke-width="1.5"
            stroke-linecap="round" stroke-linejoin="round"></path>
        <path d="M17 23H21C22.1046 23 23 22.1046 23 21V17" stroke="white" stroke-width="1.5"
            stroke-linecap="round" stroke-linejoin="round"></path>
        <path d="M23 7L23 3C23 1.89543 22.1046 1 21 1L17 1" stroke="white" stroke-width="1.5"
            stroke-linecap="round" stroke-linejoin="round"></path>
        <path d="M5 15L5 17C5 18.1046 5.89543 19 7 19L9 19" stroke="white" stroke-width="1.5"
            stroke-linecap="round" stroke-linejoin="round"></path>
        <path d="M9 5H7C5.89543 5 5 5.89543 5 7V9" stroke="white" stroke-width="1.5"
            stroke-linecap="round" stroke-linejoin="round"></path>
        <path d="M15 19H17C18.1046 19 19 18.1046 19 17V15" stroke="white" stroke-width="1.5"
            stroke-linecap="round" stroke-linejoin="round"></path>
        <path d="M19 9L19 7C19 5.89543 18.1046 5 17 5L15 5" stroke="white" stroke-width="1.5"
            stroke-linecap="round" stroke-linejoin="round"></path>
        <path d="M1 17L1 21C1 22.1046 1.89543 23 3 23L7 23" stroke="white" stroke-width="1.5"
            stroke-linecap="round" stroke-linejoin="round"></path>
        <rect y="11.5" width="24" height="1.5" rx="0.75" fill="white"></rect>
    </g>
    <defs>
        <clipPath id="clip0">
            <rect width="24" height="24" fill="white"></rect>
        </clipPath>
    </defs>
</svg>