<svg data-name="Layer 1" xmlns="http://www.w3.org/2000/svg" viewBox="0 0 24 24" style="fill:#ffffff">
    <path
        d="M21.732 11.941a2.135 2.135 0 00-.386-.549l.12-.175a2.23 2.23 0 00.326-1.035 2.394 2.394 0 00-.181-1.086 2.26 2.26 0 00-.856-1.098 2.163 2.163 0 00-1.315-.374h-3.836V6.85a7.827 7.827 0 00-.071-1.623 4.933 4.933 0 00-.821-1.996 2.692 2.692 0 00-.868-.849 2.587 2.587 0 00-1.158-.374 2.344 2.344 0 00-1.206.224.763.763 0 00-.374.325.92.92 0 00-.132.474l.048 2.795a.815.815 0 01-.097.4L9.357 8.92c-.064.117-.16.309-.289.575l-.12.224a2.03 2.03 0 00-.41 1.248v8.886a.81.81 0 00.276.574.864.864 0 00.59.224h8.323a1.75 1.75 0 00.688-.137 1.696 1.696 0 00.567-.387 2.156 2.156 0 00.337-.324 2.764 2.764 0 00.41-.624 3.234 3.234 0 00.121-.35 1.195 1.195 0 00.096-.474 3.91 3.91 0 00-.024-.75 2.536 2.536 0 00.94-.923 1.877 1.877 0 00.29-.823 2.007 2.007 0 00-.096-.874.579.579 0 00-.072-.175 2.169 2.169 0 00.747-2.87zM6.028 9.296h-2.99a.984.984 0 00-.736.312 1.052 1.052 0 00-.302.761v10.558a1.052 1.052 0 00.302.761.984.984 0 00.736.312h2.99a.984.984 0 00.736-.312 1.056 1.056 0 00.301-.761V10.369a1.056 1.056 0 00-.302-.761.984.984 0 00-.735-.312z"></path>
</svg>