<svg viewBox="0 0 24 24" fill="none" xmlns="http://www.w3.org/2000/svg">
    <path
        d="M12 14C12.5523 14 13 13.5523 13 13C13 12.4477 12.5523 12 12 12C11.4477 12 11 12.4477 11 13C11 13.5523 11.4477 14 12 14Z"
        fill="white" stroke="white" stroke-linecap="round" stroke-linejoin="round"></path>
    <path
        d="M19 14C19.5523 14 20 13.5523 20 13C20 12.4477 19.5523 12 19 12C18.4477 12 18 12.4477 18 13C18 13.5523 18.4477 14 19 14Z"
        fill="white" stroke="white" stroke-linecap="round" stroke-linejoin="round"></path>
    <path
        d="M5 14C5.55228 14 6 13.5523 6 13C6 12.4477 5.55228 12 5 12C4.44772 12 4 12.4477 4 13C4 13.5523 4.44772 14 5 14Z"
        fill="white" stroke="white" stroke-linecap="round" stroke-linejoin="round"></path>
</svg>