<svg id="ic-histoyy" xmlns="http://www.w3.org/2000/svg" viewBox="0 0 20 20" style="fill:#808080">
    <path id="ic-histoyy-2" data-name="ic-histoyy"
        d="M1.311,14.937c-.014-.024-.027-.049-.041-.073a.66.66,0,0,1,.618-.908.679.679,0,0,1,.6.362A8.667,8.667,0,1,0,10,1.333a8,8,0,0,0-6.445,3.4L4.962,6.207a.666.666,0,0,1-.482,1.126H.667A.666.666,0,0,1,0,6.667v-4a.667.667,0,0,1,1.149-.46L2.624,3.754A9.277,9.277,0,0,1,10,0,10,10,0,1,1,1.311,14.937ZM10,11.015a.614.614,0,0,1-.629-.63V5.226a.613.613,0,0,1,.179-.449.631.631,0,0,1,1.081.449V9.755h4.409a.63.63,0,1,1,0,1.26Z"
        transform="translate(0 0)"></path>
</svg>